<?xml version="1.0" encoding="utf-8"?>
<!-- Generator: Adobe Illustrator 24.2.0, SVG Export Plug-In . SVG Version: 6.00 Build 0)  -->
<svg version="1.1" id="Layer_1" xmlns="http://www.w3.org/2000/svg" xmlns:xlink="http://www.w3.org/1999/xlink" x="0px" y="0px"
	 viewBox="0 0 45 34" style="enable-background:new 0 0 45 34;" xml:space="preserve">
<g>
	<g>
		<path d="M19.2,16.9c-1.6,0-2.7-1.1-2.7-2.7c0-1.6,1.1-2.7,2.8-2.7c1.6,0,2.7,1.1,2.7,2.7C21.9,15.8,20.8,16.9,19.2,16.9z
			 M21.3,14.2c0-0.3-0.1-0.6-0.1-0.9c-0.3-1-1-1.6-2-1.6c-1,0-1.8,0.5-2,1.5c-0.1,0.6-0.1,1.3,0,1.9c0.2,1,1,1.5,2,1.5
			C20.5,16.6,21.3,15.6,21.3,14.2z"/>
		<path d="M22.7,12.5c-0.5,0.1-0.8,0-1.1-0.3c-1.1-1.4-3.6-1.4-4.8,0c-0.3,0.4-0.6,0.4-1,0.3c0.2-0.7,1.3-1.5,2.6-1.6
			C20,10.7,21.5,11,22.7,12.5z"/>
	</g>
	<path d="M23.2,17.1c-0.2-0.2-0.4-0.5-0.7-0.7c0.2-0.2,0.3-0.4,0.4-0.6c-0.5-0.1-0.8,0-1.1,0.3c-0.4,0.5-1,0.8-1.6,0.9
		c-0.4,0.1-0.7,0.1-1.1,0.1c-0.4,0-0.8,0-1.1-0.1c-0.6-0.1-1.2-0.4-1.6-0.9c-0.3-0.4-0.6-0.5-1.1-0.3c0.1,0.2,0.3,0.4,0.4,0.6
		c-0.2,0.2-0.4,0.5-0.7,0.7c-0.1,0.1-0.1,0.2-0.1,0.3c0.1,0,0.2,0,0.3-0.1c0.2-0.2,0.5-0.5,0.7-0.7c0.4,0.1,0.5,0.3,0.3,0.6
		c-0.1,0.2-0.2,0.4-0.3,0.6c0,0.1,0,0.2,0,0.3c0.1,0,0.2-0.1,0.2-0.1c0.1-0.2,0.2-0.4,0.3-0.6c0.1-0.1,0.3-0.2,0.4-0.3
		c0,0.2,0.1,0.4,0.1,0.5c0,0.2-0.2,0.4-0.2,0.7c0,0.1,0,0.2,0.1,0.2c0.1,0,0.2-0.1,0.2-0.1c0.1-0.3,0.2-0.5,0.3-0.8
		c0-0.1,0.2-0.2,0.3-0.3c0.1,0.1,0.2,0.3,0.2,0.4c0,0.1,0,0.3-0.1,0.5c0,0,0.1,0,0.1,0.1c0.1-0.1,0.2-0.3,0.3-0.5
		c0.1-0.4,0.2-0.5,0.3-0.3c0,0,0.1,0,0.1,0.1l0.1,0.8h0.1C19,18,19,17.5,19,17.5c0.1,0,0.1-0.1,0.2-0.1c0,0,0.1,0.1,0.1,0.1l0,0
		c0,0,0,0.5,0.2,0.9h0.1l0.1-0.7c0.3-0.3,0.4-0.2,0.5,0.2c0,0.2,0.2,0.3,0.3,0.5c0,0,0.1,0,0.1-0.1c0-0.2-0.1-0.3-0.1-0.5
		c0-0.1,0.1-0.3,0.2-0.4c0.1,0.1,0.2,0.2,0.3,0.3c0.1,0.3,0.2,0.5,0.3,0.8c0,0.1,0.2,0.1,0.2,0.1c0-0.1,0.1-0.2,0.1-0.2
		c-0.1-0.2-0.2-0.4-0.2-0.7c0-0.2,0-0.3,0.1-0.5c0.1,0.1,0.3,0.2,0.4,0.3c0.1,0.2,0.2,0.4,0.3,0.6c0,0.1,0.2,0.1,0.2,0.1
		c0-0.1,0.1-0.2,0-0.3c-0.1-0.2-0.2-0.4-0.3-0.6c-0.2-0.3-0.1-0.5,0.3-0.6c0.2,0.2,0.4,0.5,0.7,0.7c0.1,0.1,0.2,0,0.3,0.1
		C23.3,17.3,23.3,17.1,23.2,17.1z"/>
	<g>
		<path d="M1.5,10.2c0,0-0.1,0-0.2,0c-0.1,0-0.2,0-0.2,0l-0.3,0c-0.1,0-0.1,0-0.2,0c0,0,0,0,0,0c0,0,0,0,0,0c0.1,0,0.2,0,0.2,0
			c0,0,0.1,0,0.1-0.1c0,0,0-0.1,0-0.2V7.7c0-0.1,0-0.2,0-0.2c0,0,0-0.1-0.1-0.1c0,0-0.1,0-0.2,0c0,0,0,0,0,0c0,0,0,0,0,0l0.2,0
			c0.1,0,0.2,0,0.3,0c0.1,0,0.3,0,0.4,0c0.2,0,0.3,0,0.3,0c0.3,0,0.6,0.1,0.8,0.2C2.8,7.7,3,7.8,3.2,8c0.1,0.2,0.2,0.4,0.2,0.7
			c0,0.3-0.1,0.6-0.2,0.8C3,9.7,2.8,9.9,2.6,10c-0.2,0.1-0.5,0.2-0.8,0.2C1.8,10.2,1.7,10.2,1.5,10.2z M2.3,10
			c0.1-0.1,0.3-0.2,0.3-0.4c0.1-0.2,0.1-0.4,0.1-0.7c0-0.3,0-0.5-0.1-0.7C2.6,7.9,2.5,7.8,2.3,7.6S2,7.4,1.8,7.4
			c-0.2,0-0.3,0-0.4,0.1c-0.1,0-0.1,0.1-0.1,0.2v2c0,0.1,0,0.2,0.1,0.3s0.2,0.1,0.4,0.1C2,10.1,2.2,10.1,2.3,10z"/>
		<path d="M5.6,7.5c0.2,0.1,0.2,0.2,0.2,0.4c0,0.2,0,0.3-0.1,0.5C5.6,8.5,5.5,8.6,5.3,8.7C5.2,8.8,5,8.8,4.8,8.8c-0.1,0-0.2,0-0.2,0
			v1c0,0.1,0,0.2,0,0.2c0,0,0,0.1,0.1,0.1c0,0,0.1,0,0.2,0c0,0,0,0,0,0c0,0,0,0,0,0c-0.1,0-0.2,0-0.2,0l-0.3,0l-0.3,0
			c-0.1,0-0.1,0-0.2,0c0,0,0,0,0,0c0,0,0,0,0,0c0.1,0,0.2,0,0.2,0c0,0,0.1,0,0.1-0.1c0,0,0-0.1,0-0.2V7.7c0-0.1,0-0.2,0-0.2
			c0,0,0-0.1-0.1-0.1c0,0-0.1,0-0.2,0c0,0,0,0,0,0c0,0,0,0,0,0l0.2,0c0.1,0,0.2,0,0.3,0c0.1,0,0.2,0,0.3,0c0,0,0.1,0,0.1,0
			c0.1,0,0.1,0,0.2,0C5.3,7.3,5.5,7.4,5.6,7.5z M5.2,7.6C5.2,7.5,5.1,7.4,4.9,7.4c-0.1,0-0.2,0-0.3,0.1S4.6,7.6,4.6,7.7v1
			c0.1,0,0.2,0,0.3,0c0.2,0,0.3,0,0.4-0.1c0.1-0.1,0.1-0.3,0.1-0.5C5.4,7.8,5.3,7.7,5.2,7.6z M5.6,9.8C5.4,9.6,5.2,9.2,4.9,8.8
			l0.4-0.1C5.6,9,5.8,9.3,6,9.5C6.1,9.7,6.3,9.9,6.4,10c0.1,0.1,0.3,0.1,0.4,0.1c0,0,0,0,0,0c0,0,0,0,0,0H6
			C5.9,10.2,5.8,10.1,5.6,9.8z"/>
		<path d="M6.9,10.2C6.9,10.1,6.9,10.1,6.9,10.2c0.1,0,0.2,0,0.2,0c0,0,0.1,0,0.1-0.1c0,0,0-0.1,0-0.2V7.7c0-0.1,0-0.2,0-0.2
			c0,0,0-0.1-0.1-0.1c0,0-0.1,0-0.2,0c0,0,0,0,0,0c0,0,0,0,0,0h1.9c0,0,0,0,0,0l0,0.6c0,0,0,0,0,0c0,0,0,0,0,0
			c0-0.2-0.1-0.3-0.2-0.4C8.5,7.5,8.3,7.5,8.2,7.5H8c-0.1,0-0.2,0-0.2,0.1c0,0-0.1,0.1-0.1,0.2v2.1c0,0.1,0,0.2,0,0.2
			c0,0,0.1,0.1,0.2,0.1h0.1c0.2,0,0.4,0,0.6-0.1C8.8,9.8,8.9,9.7,9,9.5c0,0,0,0,0,0c0,0,0,0,0,0c0,0,0,0,0,0c0,0.2,0,0.5,0,0.6
			c0,0,0,0,0,0.1c0,0,0,0-0.1,0L6.9,10.2C6.9,10.2,6.9,10.2,6.9,10.2z M8.5,8.9C8.4,8.8,8.3,8.8,8.1,8.8H7.5V8.7h0.6
			c0.2,0,0.3,0,0.4-0.1s0.1-0.1,0.1-0.3c0,0,0,0,0,0c0,0,0,0,0,0l0,0.4l0,0.2c0,0.1,0,0.2,0,0.2c0,0,0,0,0,0c0,0,0,0,0,0
			C8.7,9.1,8.6,9,8.5,8.9z"/>
		<path d="M12.5,10.2C12.5,10.2,12.5,10.2,12.5,10.2c-0.1,0-0.2,0-0.3,0c-0.1,0-0.2,0-0.3,0c-0.1,0-0.2,0-0.3,0c-0.1,0-0.2,0-0.2,0
			c0,0,0,0,0,0c0,0,0,0,0,0c0.1,0,0.1,0,0.2,0c0,0,0.1,0,0.1-0.1c0-0.1,0-0.1-0.1-0.3l-0.9-1.8l0.2-0.4l-0.9,2
			c0,0.1-0.1,0.2-0.1,0.2c0,0.1,0,0.2,0.1,0.3c0.1,0.1,0.2,0.1,0.3,0.1c0,0,0,0,0,0c0,0,0,0,0,0c-0.1,0-0.1,0-0.2,0
			c-0.1,0-0.2,0-0.3,0c-0.1,0-0.2,0-0.3,0c-0.1,0-0.2,0-0.2,0c0,0,0,0,0,0c0,0,0,0,0,0c0.1,0,0.2,0,0.2-0.1c0.1,0,0.1-0.1,0.2-0.2
			s0.1-0.2,0.2-0.4l1-2.2c0,0,0,0,0,0c0,0,0,0,0,0L12,9.6c0.1,0.2,0.2,0.4,0.3,0.4C12.3,10.1,12.4,10.1,12.5,10.2
			C12.5,10.1,12.5,10.1,12.5,10.2z M10.1,9h1.3l0,0.1H10L10.1,9z"/>
		<path d="M13.1,7.5l0.1,0l0,2.1c0,0.2,0,0.3,0.1,0.4c0.1,0.1,0.2,0.1,0.3,0.1c0,0,0,0,0,0c0,0,0,0,0,0c-0.1,0-0.1,0-0.2,0l-0.2,0
			l-0.3,0c0,0-0.1,0-0.2,0c0,0,0,0,0,0c0,0,0,0,0,0c0.1,0,0.2,0,0.3-0.1C13,9.9,13,9.8,13,9.6L13.1,7.5z M16.3,10.2
			C16.3,10.2,16.3,10.2,16.3,10.2c-0.1,0-0.2,0-0.3,0l-0.3,0l-0.3,0c-0.1,0-0.1,0-0.2,0c0,0,0,0,0,0c0,0,0,0,0,0c0.1,0,0.2,0,0.2,0
			c0,0,0.1,0,0.1-0.1c0,0,0-0.1,0-0.2l-0.1-2l0.2-0.4l-1.2,2.7c0,0,0,0,0,0c0,0,0,0,0,0l-1.3-2.4c-0.1-0.1-0.1-0.2-0.2-0.2
			c-0.1-0.1-0.1-0.1-0.2-0.1c0,0,0,0,0,0c0,0,0,0,0,0l0.2,0c0,0,0.1,0,0.2,0l0.2,0c0,0,0.1,0,0.1,0c0,0,0.1,0,0.1,0
			c0,0,0.1,0.1,0.1,0.2l1,1.9l-0.2,0.4l1.1-2.4c0,0,0-0.1,0.1-0.1c0,0,0,0,0.1,0c0,0,0.1,0,0.1,0c0,0,0.1,0,0.1,0l0.3,0
			c0,0,0.1,0,0.2,0c0,0,0,0,0,0c0,0,0,0,0,0c-0.1,0-0.2,0-0.3,0.1s-0.1,0.1-0.1,0.3l0.1,2.1c0,0.1,0,0.2,0,0.2c0,0,0,0.1,0.1,0.1
			C16.1,10.1,16.2,10.1,16.3,10.2C16.3,10.1,16.3,10.1,16.3,10.2z"/>
		<path d="M5.1,14.5c0.4,0.2,0.7,0.4,0.9,0.7c0.2,0.3,0.3,0.6,0.3,1c0,0.4-0.1,0.8-0.3,1.1c-0.2,0.3-0.6,0.6-1,0.8
			c-0.4,0.2-0.9,0.3-1.4,0.3c-0.2,0-0.5,0-0.7,0c-0.1,0-0.2,0-0.4,0c-0.2,0-0.3,0-0.5,0l-0.8,0c-0.2,0-0.4,0-0.6,0c0,0,0,0,0-0.1
			c0,0,0-0.1,0-0.1c0.2,0,0.4,0,0.5-0.1c0.1,0,0.2-0.1,0.2-0.2c0.1-0.1,0.1-0.3,0.1-0.5V12c0-0.3-0.1-0.5-0.2-0.6
			c-0.1-0.1-0.3-0.2-0.7-0.2c0,0,0,0,0-0.1c0,0,0-0.1,0-0.1l0.6,0c0.4,0,0.6,0,0.8,0c0.2,0,0.4,0,0.7,0c0.1,0,0.2,0,0.3,0
			c0.2,0,0.3,0,0.4,0c0.7,0,1.2,0.1,1.6,0.4c0.4,0.3,0.6,0.6,0.6,1.1c0,0.4-0.2,0.8-0.5,1.2c-0.4,0.3-0.9,0.6-1.5,0.7l0.1-0.2
			C4.2,14.3,4.7,14.3,5.1,14.5z M2.7,11.5c-0.1,0.1-0.1,0.3-0.1,0.6v2.3l-0.4-0.1c0.3,0,0.6,0,0.9,0c0.4,0,0.7-0.2,0.9-0.5
			c0.2-0.3,0.3-0.7,0.3-1.2c0-0.4-0.1-0.8-0.3-1c-0.2-0.2-0.5-0.3-0.8-0.3C3,11.3,2.8,11.4,2.7,11.5z M4.9,16.5
			c0-0.6-0.1-1.1-0.4-1.4c-0.3-0.3-0.7-0.5-1.3-0.5c-0.4,0-0.7,0-1,0.1l0.4-0.1v2.9c0,0.3,0.1,0.4,0.2,0.5c0.1,0.1,0.3,0.2,0.7,0.2
			C4.4,18.1,4.9,17.6,4.9,16.5z"/>
		<path d="M12.2,11.5c0.4,0.3,0.6,0.6,0.6,1.1c0,0.4-0.1,0.8-0.4,1.2c-0.3,0.4-0.6,0.6-1,0.8c-0.4,0.2-0.8,0.3-1.3,0.3
			c-0.3,0-0.5,0-0.6,0v2.6c0,0.2,0,0.4,0.1,0.5c0,0.1,0.1,0.2,0.2,0.2c0.1,0,0.3,0.1,0.5,0.1c0,0,0,0,0,0.1c0,0,0,0.1,0,0.1
			c-0.3,0-0.5,0-0.6,0l-0.9,0l-0.8,0c-0.2,0-0.4,0-0.6,0c0,0,0,0,0-0.1c0,0,0-0.1,0-0.1c0.2,0,0.4,0,0.5-0.1c0.1,0,0.2-0.1,0.2-0.2
			c0-0.1,0.1-0.3,0.1-0.5V12c0-0.2,0-0.4-0.1-0.5c0-0.1-0.1-0.2-0.2-0.2c-0.1,0-0.3-0.1-0.5-0.1c0,0,0,0,0-0.1c0,0,0-0.1,0-0.1
			l0.6,0c0.4,0,0.6,0,0.8,0c0.3,0,0.5,0,0.8,0c0.1,0,0.2,0,0.4,0c0.2,0,0.3,0,0.5,0C11.3,11.1,11.8,11.2,12.2,11.5z M11.2,11.7
			c-0.2-0.2-0.5-0.4-0.8-0.4c-0.3,0-0.5,0.1-0.7,0.2c-0.1,0.1-0.2,0.3-0.2,0.6v2.5c0.2,0,0.4,0,0.7,0c0.4,0,0.8-0.1,1-0.4
			c0.2-0.3,0.3-0.7,0.3-1.2C11.4,12.4,11.3,11.9,11.2,11.7z M12.1,17.4c-0.5-0.6-1.1-1.5-1.7-2.7l1.1-0.3c0.6,1,1.2,1.7,1.6,2.3
			c0.4,0.5,0.8,0.9,1.1,1.2c0.3,0.2,0.7,0.4,1,0.4c0,0,0,0,0,0.1c0,0,0,0.1,0,0.1H13C12.9,18.4,12.5,18,12.1,17.4z"/>
		<path d="M27.1,18.4c-0.1,0-0.1,0-0.1,0l-3-6.3c-0.1-0.2-0.2-0.4-0.3-0.5c-0.1-0.1-0.2-0.2-0.2-0.2c-0.1,0-0.2-0.1-0.4-0.1
			c0,0,0,0,0-0.1c0,0,0-0.1,0-0.1c0.1,0,0.2,0,0.2,0c0.2,0,0.4,0,0.6,0c0.5,0,1,0,1.3,0c0.1,0,0.2,0,0.4,0c0,0,0,0,0,0.1
			c0,0,0,0.1,0,0.1c-0.2,0-0.3,0-0.4,0.1c-0.1,0-0.1,0.1-0.1,0.2c0,0.1,0.1,0.4,0.3,0.8l2.2,4.6l-0.5,0.8l1.3-3.5l0.2,0.3l-1.4,3.8
			C27.2,18.4,27.1,18.4,27.1,18.4z M33.7,11.2C33.7,11.2,33.7,11.2,33.7,11.2c-0.3,0.1-0.6,0.2-0.8,0.4c-0.3,0.2-0.5,0.6-0.6,1
			l-2.1,5.7c0,0-0.1,0-0.1,0c-0.1,0-0.1,0-0.1,0l-3-6.3c-0.1-0.3-0.3-0.5-0.4-0.6c-0.1-0.1-0.2-0.2-0.4-0.2c0,0,0,0,0-0.1
			c0,0,0-0.1,0-0.1c0.1,0,0.2,0,0.3,0c0.1,0,0.3,0,0.4,0c0.4,0,0.8,0,1.1,0c0.1,0,0.2,0,0.3,0c0,0,0,0,0,0.1c0,0,0,0.1,0,0.1
			c-0.1,0-0.2,0-0.2,0c-0.1,0-0.1,0.1-0.1,0.1c0,0.1,0.1,0.4,0.3,0.8l2.2,4.6L30,17.7l1.9-5C32,12.5,32,12.2,32,12
			c0-0.2-0.1-0.4-0.2-0.6c-0.1-0.1-0.3-0.2-0.5-0.2c0,0,0,0,0-0.1c0,0,0-0.1,0-0.1l0.5,0c0.3,0,0.5,0,0.8,0c0.2,0,0.3,0,0.5,0
			L33.7,11.2C33.7,11.1,33.7,11.1,33.7,11.2z M29.3,11.6c0-0.2-0.1-0.3-0.3-0.3c0,0,0,0,0-0.1c0,0,0-0.1,0-0.1c0.1,0,0.1,0,0.2,0
			c0.1,0,0.3,0,0.6,0c0.1,0,0.3,0,0.5,0l0.4,0c0,0,0,0,0,0.1c0,0,0,0.1,0,0.1c-0.5,0-0.9,0.5-1.3,1.4l-0.7,1.9l-0.2-0.3l0.6-1.6
			C29.2,12.1,29.3,11.8,29.3,11.6z"/>
		<path d="M35.8,13c0.1,0.2,0.3,0.4,0.5,0.6c0.2,0.2,0.5,0.4,0.8,0.6c0.4,0.2,0.7,0.5,0.9,0.6c0.2,0.2,0.4,0.4,0.6,0.7
			c0.2,0.3,0.2,0.6,0.2,0.9c0,0.4-0.1,0.8-0.3,1.1c-0.2,0.3-0.5,0.6-0.9,0.7c-0.4,0.2-0.8,0.3-1.3,0.3c-0.3,0-0.7,0-1.1-0.1
			c-0.4-0.1-0.6-0.2-0.8-0.3c0,0-0.1-0.1-0.1-0.1c0,0,0-0.1,0-0.1l0-1.8v0c0,0,0,0,0.1-0.1c0,0,0.1,0,0.1,0c0.2,0.5,0.4,0.9,0.6,1.1
			c0.2,0.3,0.4,0.6,0.7,0.8c0.3,0.2,0.6,0.3,0.9,0.3c0.3,0,0.6-0.1,0.8-0.2c0.2-0.2,0.3-0.4,0.3-0.9c0-0.3-0.1-0.6-0.2-0.9
			c-0.2-0.3-0.3-0.5-0.6-0.6c-0.2-0.2-0.5-0.4-0.9-0.6c-0.4-0.2-0.7-0.4-0.9-0.6c-0.2-0.2-0.4-0.4-0.5-0.6c-0.1-0.2-0.2-0.5-0.2-0.8
			c0-0.4,0.1-0.8,0.4-1c0.2-0.3,0.5-0.5,0.9-0.6c0.4-0.1,0.8-0.2,1.2-0.2c0.3,0,0.5,0,0.8,0.1c0.3,0.1,0.5,0.1,0.7,0.2
			c0.1,0,0.1,0.1,0.1,0.1s0,0.1,0,0.1v1.7c0,0,0,0-0.1,0.1c0,0-0.1,0-0.1,0L38.4,13c-0.2-0.5-0.4-0.9-0.7-1.2
			c-0.3-0.3-0.6-0.5-1.1-0.5c-0.3,0-0.6,0.1-0.8,0.3c-0.2,0.2-0.3,0.4-0.3,0.8C35.6,12.6,35.7,12.8,35.8,13z"/>
		<path d="M42.1,14.6c-0.1-0.1-0.2-0.2-0.3-0.2c-0.1,0-0.2,0-0.3,0.1c-0.1,0.1-0.1,0.2-0.1,0.3c0,0.4,0.2,0.9,0.5,1.4
			c0.4,0.5,0.8,0.9,1.3,1.3c0.3,0.2,0.5,0.4,0.7,0.5c0.2,0.1,0.4,0.2,0.5,0.2c0,0,0,0,0,0c0,0,0,0,0,0h-1c-0.1,0-0.2,0-0.3-0.1
			c-0.1-0.1-0.4-0.2-0.7-0.5c-0.3-0.2-0.6-0.5-0.9-0.8c-0.3-0.3-0.5-0.6-0.6-0.8c-0.1-0.1-0.1-0.2-0.1-0.3c0-0.1,0-0.2,0-0.3
			c0-0.3,0.1-0.6,0.3-0.8c0.2-0.2,0.5-0.3,0.9-0.3c0.3,0,0.5,0.1,0.6,0.2c0.2,0.1,0.2,0.3,0.2,0.5c0,0.2,0,0.3-0.1,0.4
			c-0.1,0.1-0.2,0.2-0.3,0.3c-0.1,0.1-0.3,0.2-0.5,0.4c-0.2,0.1-0.4,0.3-0.5,0.4c-0.1,0.1-0.2,0.2-0.3,0.3C41.1,16.9,41,17,41,17.2
			c0,0.2,0,0.3,0.1,0.5c0.1,0.1,0.2,0.3,0.4,0.4c0.2,0.1,0.4,0.1,0.6,0.1c0.7,0,1-0.4,1-1.2c0-0.2,0-0.4-0.1-0.5
			c-0.1-0.1-0.2-0.2-0.4-0.2c0,0,0,0,0,0c0,0,0,0,0,0l1.5,0c0,0,0,0,0,0c0,0,0,0,0,0c-0.1,0-0.2,0-0.3,0c-0.1,0-0.1,0.1-0.1,0.1
			s-0.1,0.2-0.1,0.3c-0.1,0.3-0.2,0.6-0.3,0.8c-0.1,0.2-0.3,0.5-0.6,0.6c-0.3,0.2-0.6,0.3-1.1,0.3c-0.3,0-0.5,0-0.7-0.1
			c-0.2-0.1-0.3-0.2-0.4-0.3c-0.1-0.1-0.1-0.3-0.1-0.4c0-0.1,0-0.3,0.1-0.4c0.1-0.1,0.2-0.2,0.3-0.3c0.1-0.1,0.3-0.2,0.5-0.4
			c0.2-0.2,0.4-0.3,0.5-0.4c0.1-0.1,0.2-0.3,0.3-0.4c0.1-0.2,0.1-0.3,0.1-0.5C42.2,14.9,42.2,14.7,42.1,14.6z"/>
		<path d="M5.1,22.7c0.4,0.2,0.7,0.4,0.9,0.7c0.2,0.3,0.3,0.6,0.3,1c0,0.4-0.1,0.8-0.3,1.1c-0.2,0.3-0.6,0.6-1,0.8
			c-0.4,0.2-0.9,0.3-1.4,0.3c-0.2,0-0.5,0-0.7,0c-0.1,0-0.2,0-0.4,0c-0.2,0-0.3,0-0.5,0l-0.8,0c-0.2,0-0.4,0-0.6,0c0,0,0,0,0-0.1
			c0,0,0-0.1,0-0.1c0.2,0,0.4,0,0.5-0.1c0.1,0,0.2-0.1,0.2-0.2c0.1-0.1,0.1-0.3,0.1-0.5v-5.4c0-0.3-0.1-0.5-0.2-0.6
			c-0.1-0.1-0.3-0.2-0.7-0.2c0,0,0,0,0-0.1c0,0,0-0.1,0-0.1l0.6,0c0.4,0,0.6,0,0.8,0c0.2,0,0.4,0,0.7,0c0.1,0,0.2,0,0.3,0
			c0.2,0,0.3,0,0.4,0c0.7,0,1.2,0.1,1.6,0.4c0.4,0.3,0.6,0.6,0.6,1.1c0,0.4-0.2,0.8-0.5,1.2c-0.4,0.3-0.9,0.6-1.5,0.7l0.1-0.2
			C4.2,22.4,4.7,22.5,5.1,22.7z M2.7,19.6c-0.1,0.1-0.1,0.3-0.1,0.6v2.3l-0.4-0.1c0.3,0,0.6,0,0.9,0c0.4,0,0.7-0.2,0.9-0.5
			c0.2-0.3,0.3-0.7,0.3-1.2c0-0.4-0.1-0.8-0.3-1c-0.2-0.2-0.5-0.3-0.8-0.3C3,19.5,2.8,19.5,2.7,19.6z M4.9,24.7
			c0-0.6-0.1-1.1-0.4-1.4c-0.3-0.3-0.7-0.5-1.3-0.5c-0.4,0-0.7,0-1,0.1l0.4-0.1v2.9c0,0.3,0.1,0.4,0.2,0.5c0.1,0.1,0.3,0.2,0.7,0.2
			C4.4,26.3,4.9,25.7,4.9,24.7z"/>
		<path d="M7.3,26.4C7.3,26.4,7.4,26.4,7.3,26.4c0.3-0.1,0.5-0.1,0.6-0.1c0.1,0,0.2-0.1,0.2-0.2c0-0.1,0.1-0.3,0.1-0.5v-5.4
			c0-0.2,0-0.4-0.1-0.5c0-0.1-0.1-0.2-0.2-0.2c-0.1,0-0.3-0.1-0.5-0.1c0,0,0,0,0-0.1c0,0,0-0.1,0-0.1h4.9c0.1,0,0.1,0,0.1,0.1l0,1.5
			c0,0,0,0-0.1,0c0,0-0.1,0-0.1,0c-0.1-0.4-0.3-0.8-0.6-1c-0.3-0.2-0.7-0.3-1.2-0.3h-0.3c-0.2,0-0.4,0.1-0.5,0.2
			c-0.1,0.1-0.2,0.3-0.2,0.5v5.3c0,0.2,0,0.4,0.1,0.5c0.1,0.1,0.2,0.2,0.4,0.2h0.4c0.6,0,1.1-0.1,1.4-0.4c0.4-0.2,0.6-0.6,0.8-1.1
			c0,0,0,0,0,0c0,0,0,0,0.1,0c0,0,0,0,0,0c-0.1,0.6-0.1,1.2-0.1,1.6c0,0.1,0,0.1,0,0.1c0,0-0.1,0-0.1,0L7.3,26.4
			C7.4,26.5,7.3,26.5,7.3,26.4z M11.5,23.2c-0.2-0.2-0.6-0.3-1-0.3H8.9v-0.3h1.6c0.4,0,0.8-0.1,1-0.2c0.2-0.2,0.4-0.4,0.4-0.6
			c0,0,0,0,0.1,0c0,0,0.1,0,0.1,0l0,1l0,0.6c0,0.3,0,0.5,0,0.6c0,0,0,0-0.1,0c0,0-0.1,0-0.1,0C11.8,23.6,11.7,23.4,11.5,23.2z"/>
		<path d="M21.7,26.4C21.7,26.5,21.6,26.5,21.7,26.4c-0.2,0.1-0.5,0.1-0.8,0c-0.3,0-0.6,0-0.7,0c-0.2,0-0.4,0-0.7,0
			c-0.3,0-0.5,0-0.6,0c0,0,0,0,0-0.1c0,0,0-0.1,0-0.1c0.2,0,0.3,0,0.4-0.1c0.1,0,0.1-0.1,0.1-0.2c0-0.1-0.1-0.4-0.2-0.7l-2.4-4.6
			l0.6-1l-2.3,5.1c-0.1,0.2-0.2,0.4-0.2,0.6c0,0.3,0.1,0.5,0.3,0.6c0.2,0.2,0.5,0.2,0.8,0.2c0,0,0.1,0,0.1,0.1c0,0,0,0.1-0.1,0.1
			c-0.1,0-0.3,0-0.6,0c-0.3,0-0.5,0-0.8,0c-0.2,0-0.5,0-0.8,0c-0.3,0-0.5,0-0.6,0c0,0,0,0,0-0.1c0,0,0-0.1,0-0.1
			c0.2,0,0.4,0,0.5-0.1c0.1-0.1,0.3-0.2,0.4-0.5c0.1-0.2,0.3-0.6,0.5-1l2.5-5.5c0,0,0.1,0,0.1,0c0.1,0,0.1,0,0.1,0l2.9,5.7
			c0.3,0.5,0.5,0.9,0.7,1.1C21.2,26.3,21.4,26.4,21.7,26.4C21.6,26.4,21.7,26.4,21.7,26.4z M15.5,23.5h3.3l0.1,0.3h-3.6L15.5,23.5z"
			/>
		<path d="M27.5,19.8c-0.2-0.2-0.5-0.4-0.8-0.4c0,0,0,0,0-0.1c0,0,0-0.1,0-0.1l0.6,0c0.3,0,0.5,0,0.7,0c0.1,0,0.4,0,0.6,0l0.5,0
			c0,0,0,0,0,0.1c0,0,0,0.1,0,0.1c-0.3,0-0.5,0.1-0.7,0.4c-0.2,0.2-0.3,0.6-0.3,1V24c0,0.5-0.1,1-0.4,1.4c-0.2,0.4-0.6,0.7-1,0.9
			c-0.4,0.2-0.9,0.3-1.5,0.3c-0.6,0-1.1-0.1-1.5-0.3s-0.8-0.5-1-0.9c-0.3-0.4-0.4-0.9-0.4-1.5v-3.7c0-0.2,0-0.4-0.1-0.5
			c0-0.1-0.1-0.2-0.2-0.2c-0.1,0-0.3-0.1-0.5-0.1c0,0,0,0,0-0.1c0,0,0-0.1,0-0.1l0.6,0c0.4,0,0.6,0,0.8,0c0.2,0,0.5,0,0.9,0l0.6,0
			c0,0,0,0,0,0.1c0,0,0,0.1,0,0.1c-0.2,0-0.4,0-0.5,0.1c-0.1,0-0.2,0.1-0.2,0.2c0,0.1-0.1,0.3-0.1,0.5v3.3c0,0.9,0.2,1.6,0.5,2
			c0.4,0.4,0.9,0.7,1.5,0.7c0.6,0,1.1-0.2,1.5-0.6c0.4-0.4,0.5-0.9,0.5-1.7v-3.2C27.8,20.3,27.7,20,27.5,19.8z"/>
		<path d="M29.9,21.3C29.9,21.4,29.9,21.4,29.9,21.3c-0.1,0-0.1,0-0.1,0c0-0.3,0.1-0.7,0.1-1.2c0-0.5,0.1-0.9,0.1-1.1
			c0,0,0-0.1,0.1-0.1c0,0,0.1,0,0.1,0.1c0,0.2,0.2,0.3,0.7,0.3c0.7,0,1.4,0,2.3,0c0.5,0,0.9,0,1.4,0l0.8,0c0.3,0,0.5,0,0.6-0.1
			c0.1,0,0.2-0.1,0.3-0.2c0,0,0,0,0.1,0c0,0,0.1,0,0.1,0c0,0.2,0,0.6-0.1,1.1c0,0.5,0,0.9,0,1.2c0,0,0,0-0.1,0c0,0-0.1,0-0.1,0
			c-0.1-0.6-0.3-1-0.6-1.3c-0.3-0.3-0.7-0.4-1.2-0.4c-0.2,0-0.4,0-0.4,0.1c-0.1,0.1-0.1,0.3-0.1,0.6v5.3c0,0.2,0,0.4,0.1,0.5
			c0,0.1,0.1,0.2,0.3,0.2c0.1,0,0.3,0.1,0.6,0.1c0,0,0,0,0,0.1c0,0,0,0.1,0,0.1c-0.3,0-0.5,0-0.7,0l-1,0l-0.9,0c-0.2,0-0.4,0-0.7,0
			c0,0,0,0,0-0.1c0,0,0-0.1,0-0.1c0.3,0,0.5,0,0.6-0.1c0.1,0,0.2-0.1,0.3-0.2c0.1-0.1,0.1-0.3,0.1-0.5v-5.4c0-0.3,0-0.4-0.1-0.5
			c-0.1-0.1-0.2-0.1-0.4-0.1C31,19.5,30.3,20.1,29.9,21.3z"/>
		<path d="M37.3,19.7c-0.2-0.2-0.3-0.3-0.5-0.3c0,0,0,0,0-0.1c0,0,0-0.1,0-0.1l0.4,0c0.2,0,0.3,0,0.4,0c0.3,0,0.7,0,1.2,0l0.8,0
			c0,0,0,0,0,0.1c0,0,0,0.1,0,0.1c-0.1,0-0.2,0-0.3,0.1c-0.1,0.1-0.1,0.1-0.1,0.2c0,0.1,0.1,0.3,0.2,0.4l1.7,2.6l-1.1,0.5L38,20.6
			C37.7,20.2,37.5,19.8,37.3,19.7z M41,22.8v2.8c0,0.2,0,0.4,0.1,0.5c0,0.1,0.1,0.2,0.2,0.2c0.1,0,0.3,0.1,0.5,0.1c0,0,0,0,0,0.1
			c0,0,0,0.1,0,0.1c-0.3,0-0.5,0-0.6,0l-0.9,0l-0.9,0c-0.2,0-0.4,0-0.6,0c0,0,0,0,0-0.1c0,0,0-0.1,0-0.1c0.2,0,0.4,0,0.5-0.1
			c0.1,0,0.2-0.1,0.2-0.2c0-0.1,0.1-0.3,0.1-0.5v-2.7L41,22.8z M42.2,20c0-0.2-0.1-0.3-0.2-0.4c-0.1-0.1-0.3-0.1-0.5-0.1
			c0,0,0,0,0-0.1c0,0,0-0.1,0-0.1l0.6,0c0.4,0,0.7,0,1,0c0.1,0,0.3,0,0.5,0l0.4,0c0,0,0,0,0,0.1c0,0,0,0.1,0,0.1
			c-0.2,0-0.5,0.1-0.9,0.4c-0.3,0.3-0.7,0.7-0.9,1.1l-1.5,2.5l-0.2-0.2l1.4-2.4C42.1,20.5,42.2,20.2,42.2,20z"/>
	</g>
</g>
</svg>
